<?xml version="1.0" ?><svg height="60px" version="1.1" viewBox="0 0 60 60" width="60px" xmlns="http://www.w3.org/2000/svg" xmlns:xlink="http://www.w3.org/1999/xlink"><title/><desc/><defs/><g fill="none" fill-rule="evenodd" id="People" stroke="none" stroke-width="1"><g fill="#000000" id="Icon-5"><path d="M55,50 C55.553,50 56,49.552 56,49 L56,13 C56,12.448 55.553,12 55,12 C54.447,12 54,12.448 54,13 L54,49 C54,49.552 54.447,50 55,50 L55,50 Z M58,55 L58,54 L55,54 C54.447,54 54,53.552 54,53 C54,52.448 54.447,52 55,52 L58,52 L58,10 L55,10 C54.447,10 54,9.552 54,9 C54,8.448 54.447,8 55,8 L57.382,8 L55,3.236 L52,9.236 L52,55 C52,56.654 53.346,58 55,58 C56.654,58 58,56.654 58,55 L58,55 Z M60.02,9 C60.02,9.068 60.013,9.135 60,9.2 L60,55 C60,57.757 57.757,60 55,60 C52.243,60 50,57.757 50,55 L50,9 C50,8.845 50.036,8.691 50.105,8.553 L54.105,0.553 C54.445,-0.125 55.555,-0.125 55.895,0.553 L59.814,8.392 C59.943,8.561 60.02,8.771 60.02,9 L60.02,9 Z M31,30 L21,30 C20.447,30 20,30.448 20,31 C20,31.552 20.447,32 21,32 L31,32 C31.553,32 32,31.552 32,31 C32,30.448 31.553,30 31,30 L31,30 Z M21,28 L27,28 C27.553,28 28,27.552 28,27 C28,26.448 27.553,26 27,26 L21,26 C20.447,26 20,26.448 20,27 C20,27.552 20.447,28 21,28 L21,28 Z M16,36 L36,36 L36,22 L16,22 L16,36 Z M14,37 L14,21 C14,20.448 14.447,20 15,20 L37,20 C37.553,20 38,20.448 38,21 L38,37 C38,37.552 37.553,38 37,38 L15,38 C14.447,38 14,37.552 14,37 L14,37 Z M2,9.087 L2,55 C2,56.598 3.402,58 5,58 L43,58 C44.598,58 46,56.598 46,55 L46,10 L5,10 C4.177,10 3.003,9.763 2,9.087 L2,9.087 Z M47,2 L4,2 C2.897,2 2,2.897 2,4 L2,5 C2,7.823 4.504,7.994 5.006,8 L47,8 C47.553,8 48,8.448 48,9 L48,55 C48,57.71 45.71,60 43,60 L5,60 C2.29,60 0,57.71 0,55 L0,4 C0,1.794 1.794,0 4,0 L47,0 C47.553,0 48,0.448 48,1 C48,1.552 47.553,2 47,2 L47,2 Z M5,56 C5.553,56 6,55.552 6,55 L6,13 C6,12.448 5.553,12 5,12 C4.447,12 4,12.448 4,13 L4,55 C4,55.552 4.447,56 5,56 L5,56 Z M45,4 C45.553,4 46,4.448 46,5 C46,5.552 45.553,6 45,6 L5,6 C4.447,6 4,5.552 4,5 C4,4.448 4.447,4 5,4 L45,4 Z" id="book-write"/></g></g></svg>