<?xml version="1.0" ?><svg height="60px" version="1.1" viewBox="0 0 60 60" width="60px" xmlns="http://www.w3.org/2000/svg" xmlns:xlink="http://www.w3.org/1999/xlink"><title/><desc/><defs/><g fill="none" fill-rule="evenodd" id="People" stroke="none" stroke-width="1"><g fill="#000000" id="Icon-6"><path d="M9.293,49.707 C9.488,49.902 9.744,50 10,50 C10.256,50 10.512,49.902 10.707,49.707 L15,45.414 L19.293,49.707 C19.488,49.902 19.744,50 20,50 C20.256,50 20.512,49.902 20.707,49.707 C21.098,49.316 21.098,48.684 20.707,48.293 L16.414,44 L20.707,39.707 C21.098,39.316 21.098,38.684 20.707,38.293 C20.316,37.902 19.684,37.902 19.293,38.293 L15,42.586 L10.707,38.293 C10.316,37.902 9.684,37.902 9.293,38.293 C8.902,38.684 8.902,39.316 9.293,39.707 L13.586,44 L9.293,48.293 C8.902,48.684 8.902,49.316 9.293,49.707 L9.293,49.707 Z M39,48 L51,48 C51.552,48 52,47.552 52,47 C52,46.448 51.552,46 51,46 L39,46 C38.448,46 38,46.448 38,47 C38,47.552 38.448,48 39,48 L39,48 Z M39,42 L51,42 C51.552,42 52,41.552 52,41 C52,40.448 51.552,40 51,40 L39,40 C38.448,40 38,40.448 38,41 C38,41.552 38.448,42 39,42 L39,42 Z M39,14 C38.448,14 38,14.448 38,15 C38,15.552 38.448,16 39,16 L51,16 C51.552,16 52,15.552 52,15 C52,14.448 51.552,14 51,14 L39,14 Z M15,22 C15.552,22 16,21.552 16,21 L16,16 L21,16 C21.552,16 22,15.552 22,15 C22,14.448 21.552,14 21,14 L16,14 L16,9 C16,8.448 15.552,8 15,8 C14.448,8 14,8.448 14,9 L14,14 L9,14 C8.448,14 8,14.448 8,15 C8,15.552 8.448,16 9,16 L14,16 L14,21 C14,21.552 14.448,22 15,22 L15,22 Z M60,5 L60,55 C60,57.57 57.57,60 55,60 L5,60 C2.43,60 0,57.57 0,55 L0,5 C0,2.43 2.43,0 5,0 L25,0 C25.552,0 26,0.448 26,1 C26,1.552 25.552,2 25,2 L5,2 C3.542,2 2,3.542 2,5 L2,55 C2,56.458 3.542,58 5,58 L55,58 C56.458,58 58,56.458 58,55 L58,5 C58,3.542 56.458,2 55,2 L31,2 L31,28 L55,28 C55.552,28 56,28.448 56,29 C56,29.552 55.552,30 55,30 L31,30 L31,55 C31,55.552 30.552,56 30,56 C29.448,56 29,55.552 29,55 L29,30 L5,30 C4.448,30 4,29.552 4,29 C4,28.448 4.448,28 5,28 L29,28 L29,1 C29,0.448 29.448,0 30,0 L55,0 C57.57,0 60,2.43 60,5 L60,5 Z" id="calculator"/></g></g></svg>